<svg id="visual" viewBox="0 342 960 199" width="960" height="199" xmlns="http://www.w3.org/2000/svg" xmlns:xlink="http://www.w3.org/1999/xlink" version="1.1">
    <path d="M0 375L22.8 386.2C45.7 397.3 91.3 419.7 137 408.8C182.7 398 228.3 354 274 353.7C319.7 353.3 365.3 396.7 411.2 412.2C457 427.7 503 415.3 548.8 403.5C594.7 391.7 640.3 380.3 686 385.3C731.7 390.3 777.3 411.7 823 407.2C868.7 402.7 914.3 372.3 937.2 357.2L960 342L960 541L937.2 541C914.3 541 868.7 541 823 541C777.3 541 731.7 541 686 541C640.3 541 594.7 541 548.8 541C503 541 457 541 411.2 541C365.3 541 319.7 541 274 541C228.3 541 182.7 541 137 541C91.3 541 45.7 541 22.8 541L0 541Z" fill="#6741d9" stroke-linecap="round" stroke-linejoin="miter"></path>
</svg>
