<svg xmlns="http://www.w3.org/2000/svg" xmlns:xlink="http://www.w3.org/1999/xlink" viewBox="0,0,256,256" width="50px" height="50px"><g fill-opacity="0.01176" fill="#1d0000" fill-rule="nonzero" stroke="none" stroke-width="1" stroke-linecap="butt" stroke-linejoin="miter" stroke-miterlimit="10" stroke-dasharray="" stroke-dashoffset="0" font-family="none" font-weight="none" font-size="none" text-anchor="none" style="mix-blend-mode: normal"><path d="M0,256v-256h256v256z" id="bgRectangle"></path></g><g fill="#000000" fill-rule="nonzero" stroke="none" stroke-width="1" stroke-linecap="butt" stroke-linejoin="miter" stroke-miterlimit="10" stroke-dasharray="" stroke-dashoffset="0" font-family="none" font-weight="none" font-size="none" text-anchor="none" style="mix-blend-mode: normal"><g transform="scale(5.12,5.12)"><path d="M21,3c-9.377,0 -17,7.623 -17,17c0,9.377 7.623,17 17,17c3.71238,0 7.13915,-1.20892 9.9375,-3.23437l13.14844,13.14844l2.82812,-2.82812l-13.02734,-13.02734c2.55682,-2.97559 4.11328,-6.83496 4.11328,-11.05859c0,-9.377 -7.623,-17 -17,-17zM21,5c8.29612,0 15,6.70388 15,15c0,8.29612 -6.70388,15 -15,15c-8.29612,0 -15,-6.70388 -15,-15c0,-8.29612 6.70388,-15 15,-15z"></path></g></g></svg>